<svg width="94" height="20" fill="none" xmlns="http://www.w3.org/2000/svg"><path d="m74.858 4.634 3.747.48c2.305.238 4.226.637 5.843.866l2.21.33 1.768.33c1.042.178 1.844.291 2.454.352 2.441.257 1.821-.355 1.938-.867.118-.511.9-.754-1.491-1.666a44.377 44.377 0 0 0-2.444-.8l-1.78-.533-2.239-.493c-1.628-.353-3.624-.81-5.996-1.112l-3.85-.54c-1.4-.158-2.876-.251-4.48-.398a118.16 118.16 0 0 0-22.531.492c-8.1.968-16.074 2.799-23.786 5.46A97.114 97.114 0 0 0 6.565 14.57a51.686 51.686 0 0 0-4.876 3.146c-1.12.793-1.699 1.278-1.634 1.37.334.573 10.564-5.893 25.096-10.091a123.57 123.57 0 0 1 23.408-4.546 130.47 130.47 0 0 1 21.95-.202l4.313.377" fill="currentColor"/></svg>